<svg id="Layer_1" data-name="Layer 1" xmlns="http://www.w3.org/2000/svg" viewBox="0 0 1249 588"><defs><style>.cls-1{fill:#cbe6ff;opacity:0.49;}.cls-2{fill:#070401;}.cls-3{fill:#eaba65;}.cls-4{fill:#677ca0;}.cls-5{fill:#f9f9f9;}.cls-6{fill:#ff9631;}.cls-7{fill:#020201;}.cls-8{fill:#070504;}.cls-9{fill:#ef852e;}.cls-10{fill:#40607e;}.cls-11{fill:#fff;}.cls-12{fill:#f7ddb2;}.cls-13{fill:#062136;}.cls-14{fill:#e28130;}.cls-15,.cls-20,.cls-21,.cls-29,.cls-30{fill:none;stroke-miterlimit:10;}.cls-15,.cls-20{stroke:#000;}.cls-15{stroke-width:2px;}.cls-15,.cls-20,.cls-21,.cls-25,.cls-28,.cls-29{opacity:0.3;}.cls-16{fill:#4c350c;}.cls-17{fill:#cad2d9;}.cls-18{fill:#e2e8ed;}.cls-19{fill:#0f0b08;}.cls-20{stroke-width:0.75px;}.cls-21{stroke:#020201;}.cls-22{fill:#020507;}.cls-23{fill:#8497c1;}.cls-24{fill:#2e4960;}.cls-25{fill:#f7f7f7;}.cls-26{fill:#444;}.cls-27{fill:#4f361f;}.cls-28{fill:#231d14;}.cls-29{stroke:#231d14;}.cls-30{stroke:#d88619;}</style></defs><path class="cls-1" d="M98.09,588C38.8,560.49-.1,508.52,0,453.74c.08-44.39,25.74-76.18,34-86.13,46.27-55.7,116.38-59.14,128.17-59.53-8.68-17.52-22.45-51.38-20.92-95C143.79,140.42,187,92.85,200.1,78.82A230.5,230.5,0,0,1,307.34,14.23C374.15-3.88,429.4,14,457.74,23.09A306.92,306.92,0,0,1,554.52,75,207,207,0,0,1,604.22,32C667.34-7.1,732.26-.12,745.46,1.56c53.28,6.76,88.7,31.6,104.63,43.06,53.39,38.42,76.27,87.73,85,110.2a291.06,291.06,0,0,1,95.47,5.07c101.07,22.6,158.85,93.84,177.15,118.61,6.87,8.94,59.53,80,34.65,170.29C1213.55,553.34,1107.51,586.16,1101.19,588Z"/><path class="cls-2" d="M595.19,556.22a13.83,13.83,0,0,1-3.29,7.13c-3.66,4-8.45,3.63-9.92,7.63-.14.38-.85,2.29,0,3.69,1.4,2.34,6.63,2.48,13.21,0l6.16-2.77,2.5-4.15h5.71l5.71-2.3q-.49-5.54-1-11.07"/><path class="cls-2" d="M641.93,574.67c4.71,2.14,12.28,3.24,14.38,0a4.89,4.89,0,0,0,.38-3.69l-9.21-7L641.93,552H624v12.2l3.72,3.53h6A20.39,20.39,0,0,0,641.93,574.67Z"/><path class="cls-3" d="M701,327.48l2.77-1.85,5.53-7.37,7.38-3.69,1.84,1.84L713,319.18s1.34,1.84,3,1.84,12.7-2.76,12.7-2.76l3.75,2.76-1.9,3.69-3.69,3.69-12,4.61-10.25,3.37-5.43-8Z"/><path class="cls-3" d="M540,328.79l-6-4.16-1.84-3.69-8.3-5.53-5.54-2.77-.92,1.85,5.76,5.07-2.07,1.38-14.76-3.68-1.87,2.3.95,2.31,1.84,2.76.84,1.85,7.47,3.69,6.45,2.77L535.4,338Q537.69,333.39,540,328.79Z"/><path class="cls-4" d="M367.94,371c-.9-.15-1.4-.86-3.46-5-2.45-4.9-2.5-5.5-2.48-6a7.21,7.21,0,0,1,3.64-5.87c3.14-1.72,7.67-.63,10.36,3-.11,2.16-.58,2.76-1,2.9-1.05.34-2-2.13-5-3a4.11,4.11,0,0,0-3,0,3.73,3.73,0,0,0-2,3c-.13,1.67,1.06,3,2.94,5,2.28,2.48,3.62,2.95,3.45,4S369.36,371.23,367.94,371Z"/><path class="cls-4" d="M370.49,369.13c-5.58,2.33-11,4.59-13.49,9.87-2.58,5.47,1,7.72,0,16.6-1.15,9.88-6,10.67-6.83,20.4-.26,3.23-.86,10.59,3.83,16,4.1,4.72,10,5.42,15,6a38.15,38.15,0,0,0,26-6,39.25,39.25,0,0,0,15-21c5-17.77-2.92-41.15-17.5-45.53C384.8,363.16,376.65,366.56,370.49,369.13Z"/><path class="cls-5" d="M402,324c4.62.64,2.65,13.09,9,18a27.55,27.55,0,0,0,30,2c1.91-1.13,12.42-7.3,11-16-1.31-8.07-12.07-13.25-18-11-5.11,1.94-5.3,8.89-9,9-4.2.13-5.07-8.67-11-10-6.44-1.45-14.59,6.89-14,8C400.17,324.32,401,323.86,402,324Z"/><path class="cls-3" d="M51.45,504.14c-1.13.64-3.57-1.17-4.48-1.84-1.3-.95-1.91-1.46-2.17-2.34a2.47,2.47,0,0,1,1-2.74,3.25,3.25,0,0,1,2.28-.34c1.44.3,1.57,1.32,2.93,1.45.19,0,.74,0,1.85-.05.91,0,1-.06,1.2,0,.69.44.66,2.27-.28,3.31-.45.49-.75.43-1.35,1.1S51.88,503.9,51.45,504.14Z"/><path class="cls-3" d="M135.1,502.77c1.21,0,2-2.6,2.33-3.55.43-1.35.61-2,.3-2.85a2.64,2.64,0,0,0-2.3-1.66,2.7,2.7,0,0,0-1.9.82c-.91.92-.43,1.76-1.38,2.51-.13.11-.56.35-1.41.83s-.82.44-.88.6c-.27.67.79,2.08,2.09,2.44.6.17.8,0,1.63.22C134.58,502.41,134.64,502.78,135.1,502.77Z"/><path class="cls-3" d="M835.31,300.88a6.74,6.74,0,0,1-1.12,3.55,8.38,8.38,0,0,1-3.27,2.38,13.12,13.12,0,0,1-5.07,1.46,7.47,7.47,0,0,1-4.8-1.68c-4.74-3.4-2.25-9.39-6.71-15.5-2.64-3.61-3.76-1.84-6.54-5.45-1.57-2-2.14-3.77-4-21.64a12.54,12.54,0,0,1,.41-5.92c1.17-3.31,4.5-5.39,7.81-6.76,8.45-3.5,18.51-3.83,26.73.22a14.12,14.12,0,0,1,5.62,4.49c2.07,3.08,2.06,7,2,10.66-.1,4.67.38,7-.22,10.14a20.17,20.17,0,0,1-3.44,8.81c-2.1,2.83-2.83,1.93-4.36,4.36C836.08,293.58,835.51,298.94,835.31,300.88Z"/><path class="cls-3" d="M852,551.79c0,2.44-.09,4.48-.19,6a28.35,28.35,0,0,1-.93,6.57,18.75,18.75,0,0,1-1.85,4.15l8.9,5.22,7.76-3.13-.83-19.84Z"/><path class="cls-3" d="M804.49,549.85a15.4,15.4,0,0,1-.49,9.46l-6.86,3.6,9.31,5,10.29-.45q.24-8.55.49-17.09Z"/><path class="cls-6" d="M789.8,404.79v22.34c.08,4.43.23,10.88.49,18.66.53,16,1.08,32.33,2.94,52.25.66,7.14.68,5.15,2.44,23l2.94,29.73a21.57,21.57,0,0,0,10.29,4,22.19,22.19,0,0,0,11.75-1.8l-1.95-34.23q.22-55.15,4.4-55.41,3.24-.19,8.82,32.43l6.86,32.44,6.12,25.22a27.39,27.39,0,0,0,21.79,0q-1.47-18.69-2.93-37.39-1.72-17.79-3.43-35.58l-3.92-45.05-3.92-29.73Z"/><path class="cls-7" d="M798.61,561.56a29.6,29.6,0,0,0-9.3,2.25c-3.37,1.44-9.46,4.83-8.82,7.21.38,1.43,3,2,6.86,2.7a52.38,52.38,0,0,0,11.75.91c4.46-.16,10.28-.51,17.15-1.36q.48-3.15,1-6.3c-1.29.16-3.15.35-5.39.45a34.42,34.42,0,0,1-4.9,0C805.67,567.26,802.18,566.53,798.61,561.56Z"/><path class="cls-8" d="M847.94,567.42a21.33,21.33,0,0,0-9.65,5.4c-1,1.06-2.41,2.48-2,3.61.25.65,1.13,1.25,5.88,1.8a42,42,0,0,0,8.32.45,48.48,48.48,0,0,0,15.52-3.74v-7.07a15.21,15.21,0,0,1-7.68,2.7A15.74,15.74,0,0,1,847.94,567.42Z"/><path class="cls-9" d="M794.69,443.54c-.47,0-.79,8-1,12.61a159.11,159.11,0,0,0,0,18c.19,3.06.23,2,1,10.81.27,3.12.53,6.35,1,11.54.77,9.24.88,10.08,1,10.08.52,0,1.31-10.32,1-21.62-.12-4.38-.31-5.23-1-14.42C795.32,452.17,795.19,443.53,794.69,443.54Z"/><path class="cls-3" d="M747.68,429.18q-1-1.81-2.1-3.57a2,2,0,0,0-.66-.74c-.68-.37-1.42.48-1.39,1.34a3.37,3.37,0,0,0,1.17,2.15c.81.79,2.31,2.37,2.36,3.64a.84.84,0,0,1-.16.49c-.49.91-1,1.81-1.48,2.71-.13.23-.28.49-.52.55a.94.94,0,0,1-.73-.26c-2.85-2.05-5.65-3.41-6.82-7.45a11.07,11.07,0,0,1,.47-7.5,15.68,15.68,0,0,1,4.65-5.39q3.18-2.62,6.53-5s2.78,3.87,2.93,4.3c.57,1.65-.33,2.8-1,4.42A90.38,90.38,0,0,0,747.68,429.18Z"/><path class="cls-3" d="M904.66,432.18c.54-1.28,1.12-2.54,1.73-3.77a1.91,1.91,0,0,1,.57-.8c.64-.44,1.47.33,1.52,1.19a3.36,3.36,0,0,1-.94,2.26c-.73.86-2.06,2.59-2,3.86a.92.92,0,0,0,.21.47l1.74,2.54c.16.22.33.46.58.5a.94.94,0,0,0,.7-.34c2.63-2.32,5.28-4,6-8.1a11.05,11.05,0,0,0-1.22-7.42,15.66,15.66,0,0,0-5.18-4.88q-3.43-2.29-7-4.31s-2.37,4.13-2.47,4.57c-.4,1.7.61,2.75,1.4,4.3A88.08,88.08,0,0,1,904.66,432.18Z"/><path class="cls-10" d="M811.07,329.27q-2.73-7.09-5.45-14.18l-32,49.79L743.24,411l9.39,6.72q18.86-20.24,37.72-40.48Q800.7,353.27,811.07,329.27Z"/><path class="cls-11" d="M800.16,438.33c1.58-.17,6.87-.11,17.45,0,12.56.13,15,.28,18.23.75,4.95.71,5.93,1.31,12.31,2.52a148.14,148.14,0,0,0,16.36,2.18c-5.37-16.74-8.89-30.89-11.22-41.46-2.19-9.95-3.69-15.05-4-22.47-.64-14.6-1-29.21-1.56-43.82-.26-7.29-.55-14.59-.91-21.88-.16-3.24.51-7.76-2.62-10.2-4.76-3.71-10.8-.95-16.25-1.11-4.07-.12-10.13-1.66-12.84,1.88-1.68,2.18-2,6.93-2.85,9.6q-3.86,11.87-7.58,23.75c-4.14,13.31-10.26,27.66-11.24,41.48-1,14-.28,12.19-2.47,23.66-4.37,23-13.35,34.92-9.33,38.39C784,443.68,787.55,439.69,800.16,438.33Z"/><path class="cls-10" d="M779.52,446.43c-4.63-4.07,1.32-16.48,2.42-27.19,1.85-18,4.37-36,8.63-53.51,1.63-6.67,3.5-13.25,5.38-19.83q3.43-12,6.86-24c2.84-9.95,7.63-17,16-20.45a27.54,27.54,0,0,1,4.7-1.45,6.37,6.37,0,0,1,.1.63,5.76,5.76,0,0,0,.83,2.71l-5.51.07S803.41,368.75,802.84,380c-.22,4.28-.94,13.63-1.74,23.48q-1,7-2,14.11l-6.78,25.06c-.47.17-.94.33-1.41.47-4.09,1.31-4.72,4.63-7.08,5.05C781.91,448.53,780.16,447,779.52,446.43Z"/><path class="cls-10" d="M844,402.62c-1.55-9.21-2.77-17.7-2.88-22.3-.34-13.86-1.83-59.61-1.83-59.61L832,303.21l-1.34,0,.29,0c-.32,0,.15-3.39.26-3.69,6.29-.25,14.4,3.9,18.37,9.67,2.94,4.28,4.68,9.51,6.38,14.64,4.79,14.46,7,27.85,9.35,43.05,1.53,9.7,2.93,19.35,4,29,1.23,10.66,2.09,21.28,2.34,31.85,0,1.17.23,4.43.34,8.33.23,8.17.08,19.11-2.81,19.51a2.45,2.45,0,0,1-1.54-.48c-3.73-2.15-6.66-5-10-7.41l-8-30Q846.88,410.11,844,402.62Z"/><path class="cls-12" d="M809,257.51a22.52,22.52,0,0,0-2.8,11.39c0,1,0,2.25-.92,2.91s0,2.1-.83,1.26-3.64-3.78-3.83-4.89a35.93,35.93,0,0,1-.44-7.82c.12-2.28.5-4.66,2.08-6.46a14,14,0,0,1,3.49-2.6,19.63,19.63,0,0,1,5.89-2.67c3.72-.78,6.09.3,2.91,2.76A21,21,0,0,0,809,257.51Z"/><path class="cls-12" d="M800.16,247.47a2.2,2.2,0,0,1-.35-1.66c.18-.72.8-1.13,1.85-1.79a11.8,11.8,0,0,1,1.77-.92,3.6,3.6,0,0,1,.48-1.76c1.61-2.7,7-1.23,11.35-1.75,8-1,15.32-1.83,22.81,1.64,6.4,3,10.66,7.64,12,13.91,1.26,6-.52,14-4.18,19.15-.07-1.61.75-5.44.24-7a12.88,12.88,0,0,0-2-4.29,19.63,19.63,0,0,0-7.55-6.31,43.78,43.78,0,0,0-15.92-3.94c-5.05-.39-11.19-.68-16.07.72-2.35.67-2.71,1.21-4.28-.84s-2.9-3.76-2.35-4.64C798.12,247.83,798.54,247.36,800.16,247.47Z"/><path class="cls-3" d="M627.92,298.32a6.2,6.2,0,0,1-1,3.27,7.91,7.91,0,0,1-3,2.2,12.21,12.21,0,0,1-4.67,1.34,7,7,0,0,1-4.44-1.54c-4.37-3.14-2.07-8.67-6.18-14.3-2.44-3.34-3.47-1.7-6-5-1.44-1.88-2-3.48-3.67-20a11.38,11.38,0,0,1,.37-5.46c1.08-3,4.16-5,7.21-6.24,7.79-3.22,17.07-3.53,24.65.21a13,13,0,0,1,5.19,4.14c1.9,2.84,1.89,6.45,1.82,9.83-.09,4.31.35,6.45-.2,9.35a18.77,18.77,0,0,1-3.18,8.13c-1.93,2.61-2.6,1.77-4,4C628.63,291.58,628.11,296.53,627.92,298.32Z"/><path class="cls-12" d="M595.5,249.05a2,2,0,0,1-.32-1.53c.16-.67.73-1,1.7-1.65a10.46,10.46,0,0,1,1.64-.85,3.25,3.25,0,0,1,.43-1.62c1.49-2.5,6.42-1.14,10.48-1.62,7.38-.87,14.13-1.69,21,1.52,5.9,2.73,9.83,7,11,12.82,1.17,5.53-.47,12.88-3.85,17.67-.07-1.48.69-5,.22-6.41a11.81,11.81,0,0,0-1.8-4,18.14,18.14,0,0,0-7-5.82A40.55,40.55,0,0,0,614.43,254c-4.66-.36-10.32-.63-14.82.66-2.17.62-2.5,1.12-4-.77s-2.67-3.47-2.16-4.28C593.62,249.39,594,249,595.5,249.05Z"/><path class="cls-3" d="M433.31,319.88a6.74,6.74,0,0,1-1.12,3.55,8.38,8.38,0,0,1-3.27,2.38,13.12,13.12,0,0,1-5.07,1.46,7.47,7.47,0,0,1-4.8-1.68c-4.74-3.4-2.25-9.39-6.71-15.5-2.64-3.61-3.76-1.84-6.54-5.45-1.57-2-2.14-3.77-4-21.64a12.54,12.54,0,0,1,.41-5.92c1.17-3.31,4.5-5.39,7.81-6.76,8.45-3.5,18.51-3.83,26.73.22a14.12,14.12,0,0,1,5.62,4.49c2.07,3.08,2.06,7,2,10.66-.1,4.67.38,7-.22,10.14a20.17,20.17,0,0,1-3.44,8.81c-2.1,2.83-2.83,1.93-4.36,4.36C434.08,312.58,433.51,317.94,433.31,319.88Z"/><path class="cls-12" d="M407,276.51a22.52,22.52,0,0,0-2.8,11.39c0,1,0,2.25-.92,2.91s0,2.1-.83,1.26-3.64-3.78-3.83-4.89a35.93,35.93,0,0,1-.44-7.82c.12-2.28.5-4.66,2.08-6.46a14,14,0,0,1,3.49-2.6,19.63,19.63,0,0,1,5.89-2.67c3.72-.78,6.09.3,2.91,2.76A21,21,0,0,0,407,276.51Z"/><path class="cls-12" d="M398.16,266.47a2.2,2.2,0,0,1-.35-1.66c.18-.72.8-1.13,1.85-1.79a11.8,11.8,0,0,1,1.77-.92,3.6,3.6,0,0,1,.48-1.76c1.61-2.7,7-1.23,11.35-1.75,8-.95,15.32-1.83,22.81,1.64,6.4,3,10.66,7.64,12,13.91,1.26,6-.52,14-4.18,19.15-.07-1.61.75-5.44.24-7a12.88,12.88,0,0,0-1.95-4.29,19.63,19.63,0,0,0-7.55-6.31,43.78,43.78,0,0,0-15.92-3.94c-5.05-.39-11.19-.68-16.07.72-2.35.67-2.71,1.21-4.28-.84s-2.9-3.76-2.35-4.64C396.12,266.83,396.54,266.36,398.16,266.47Z"/><path class="cls-10" d="M909.23,415.65l-11,10.68-37.39-35.05-20.55-65.67h0c.66-6.23,10.57-7.57,13.43-1.82l29.45,59.13Z"/><path class="cls-3" d="M266,534a53.45,53.45,0,0,0,2,8c1.26,3.77,1.89,5.66,3,7s3.43,3.37,17,4c3.21.15,7.66.25,13,0v-6q-4.83-.37-10-1c-4.56-.56-8.9-1.24-13-2q-1-5.5-2-11Z"/><path class="cls-3" d="M247.1,566.09c-3-7.58-5.1-14.11-6.6-19.21-1.3-4.41-2.19-7.91-1.16-12.12a18.55,18.55,0,0,1,3.74-7.34L249,529.9l-1,16.63q2.58,8.31,5.15,16.63Z"/><path class="cls-3" d="M288.28,459.1a35.69,35.69,0,0,1,5.81,34.41l-5.23-2.16a28.34,28.34,0,0,0,1.2-9.16,20.84,20.84,0,0,0-1.21-7.08,18.91,18.91,0,0,0-8.31-9.54Z"/><path class="cls-3" d="M293.35,499.22q-2.58,4.86-5.12,9.74a2.83,2.83,0,0,1-2.31.45,2.8,2.8,0,0,1-1.93-2.64c.07-.28.92-3.47,1-3.75l1-3.75a3.12,3.12,0,0,1-1.2,0,3.06,3.06,0,0,1-1.17-.57,35.37,35.37,0,0,0,2.78-3.33,33.24,33.24,0,0,0,2.48-4,24.43,24.43,0,0,1,2.69.95,25.32,25.32,0,0,1,2.54,1.21,26.31,26.31,0,0,0-.5,2.63A23.7,23.7,0,0,0,293.35,499.22Z"/><path class="cls-3" d="M228.09,462.84a35.71,35.71,0,0,1-34-7.84c1.33-1.33,2.66-2.67,4-4a28.22,28.22,0,0,0,8,4.62,20.85,20.85,0,0,0,7,1.6,18.89,18.89,0,0,0,12-4Z"/><path class="cls-3" d="M271.09,449c-.84-1.74-3.87-.66-8-4-1.9-1.53-2.34-2.63-4-3-1.3-.29-2,.32-6,2-2.49,1-2.07.49-5,2a29.44,29.44,0,0,0-5,3,9.48,9.48,0,0,1-2.33,1.43c-1.13.46-1.56.33-1.67.57-1.16,2.47,7.24,12.56,17,12C265.51,462.46,272.62,452.2,271.09,449Z"/><path class="cls-13" d="M300.83,553.87l-1.08-7.43a5.55,5.55,0,0,1,1.13-2.93A6.58,6.58,0,0,1,306,541.4c3.92.07,8.05,6.81,10.12,16.55a4.45,4.45,0,0,1-6.94,1l-.69-.67Z"/><path class="cls-13" d="M245.79,563.57l7.23-2.16a7,7,0,0,1,3.52,2.58,7.32,7.32,0,0,1,1.07,5.43c-.85,3.92-8.25,6.82-18.22,6.67L238.5,575a4.06,4.06,0,0,1,1.43-6.33l.39-.17Z"/><path class="cls-3" d="M264.26,443.46c.15,1.43.52,2.5-.15,3.37-.43.55-1.17.86-4,1a48.16,48.16,0,0,1-5,0c-5.36-.21-6.42-.15-7-1-.48-.71-.07-1.19,0-3.05a16.49,16.49,0,0,0-3.08-9.44,7.73,7.73,0,0,0-1.78-1.88c-1.34-1-2.39-.79-4.22-3.2-1.44-1.9-2-3.52-3.66-20.16a11.89,11.89,0,0,1,.37-5.52c1.07-3.08,4.12-5,7.16-6.3,7.74-3.25,17-3.55,24.51.22a13,13,0,0,1,5.15,4.19c1.9,2.87,1.89,6.52,1.82,9.93-.09,4.35.35,6.52-.2,9.45a18.91,18.91,0,0,1-3.15,8.2c-1.92,2.64-2.59,1.8-4,4.07C266.58,434.06,263.71,438.31,264.26,443.46Z"/><path class="cls-12" d="M231.69,392.19c.73-.78,1-.94,1.7-1.64a19.71,19.71,0,0,0,2.06-2.46c2-2.53,10.23-1.58,10.41-1.6,7.34-.87,14-1.68,20.91,1.5,5.86,2.72,9.77,7,11,12.75,1.16,5.49-.47,12.81-3.83,17.56-.06-1.47.69-5,.22-6.37a11.11,11.11,0,0,0-1.78-3.93c-2.55-3.51-6.57-4.42-9.27-5a31.5,31.5,0,0,0-16,1c-7.48,2.45-9.2,5.89-14,5-.69-.13-4.56-.92-6-4-1.64-3.49.84-7.74,1-8,.54-.9,1.78-2.56,1.94-2.77A23.79,23.79,0,0,1,231.69,392.19Z"/><path class="cls-6" d="M239.14,501.82A118.82,118.82,0,0,0,234,537a33.08,33.08,0,0,0,19.6,1q2.06-11,4.12-22l4.74,22.24A35.61,35.61,0,0,0,273,539a35.21,35.21,0,0,0,9-1.89c-.39-5.3-1-11-2-17.11-1.06-6.58-2.37-12.66-3.79-18.18Z"/><path class="cls-10" d="M270.09,448a14,14,0,0,1-27.07.84c-.53,0-1.25,0-2.11.1a58.71,58.71,0,0,0-7.82,1.06,59.38,59.38,0,0,0-10,3,26.13,26.13,0,0,0,1,7,25.8,25.8,0,0,0,2,5c2.22.06,4.56.07,7,0,1.72-.05,3.4-.14,5-.25a100.18,100.18,0,0,0,0,40.39,66.25,66.25,0,0,0,39.26-.19,102.57,102.57,0,0,0-.27-38.95,19.87,19.87,0,0,0,5,4,20.11,20.11,0,0,0,5,2,30.93,30.93,0,0,0,4-6,31.45,31.45,0,0,0,2-5q-4.79-3-10-6C278.64,452.45,274.29,450.13,270.09,448Z"/><path class="cls-3" d="M189.09,452.12c-2.33-2.83-4.66-5.66-7-8.46a2.86,2.86,0,0,1,.47-2.32,2.8,2.8,0,0,1,3.18-.76l3.08,2.35,3.08,2.35a3,3,0,0,1,.51-1.09,3,3,0,0,1,1-.86,34.43,34.43,0,0,0,2,3.85,32.51,32.51,0,0,0,2.72,3.82,27.08,27.08,0,0,1-1.92,2.12c-.72.72-1.42,1.34-2.08,1.88a26.66,26.66,0,0,0-2.25-1.48A25.61,25.61,0,0,0,189.09,452.12Z"/><path class="cls-14" d="M234,535l10,2,10-1-.4,2a37.1,37.1,0,0,1-6.6,1,31.45,31.45,0,0,1-4,0,26.21,26.21,0,0,1-4.1-.62L234,537Z"/><path class="cls-14" d="M262,536l10,1,9.78-2.28c.08.76.15,1.52.22,2.28a31.45,31.45,0,0,1-3,1,32.72,32.72,0,0,1-7.64,1.11,29.94,29.94,0,0,1-4.25-.08,26.34,26.34,0,0,1-5.11-1Z"/><path class="cls-15" d="M242.5,449.5a15,15,0,0,0,8,9,14.19,14.19,0,0,0,9,1,14.35,14.35,0,0,0,7-4,15.49,15.49,0,0,0,4-7"/><path class="cls-3" d="M1056,294c-1.53.41-1.69,1.58-4,5-1.85,2.73-6.54,9.68-14,14-2.13,1.23-2.68,1.21-3,2-2,4.9,12.21,21.33,27,19,13.24-2.08,22.22-18.37,19-25-1.69-3.49-5.56-1.83-14-8C1061.41,296.91,1059,293.19,1056,294Z"/><rect class="cls-3" x="1047" y="548.69" width="12" height="22.08"/><rect class="cls-3" x="1085" y="549.74" width="12" height="22.08"/><path class="cls-16" d="M971.56,437.23a15.18,15.18,0,0,1-2.73-6.4,13.32,13.32,0,0,1,0-5.44,11.78,11.78,0,0,1,3.62-6,11.07,11.07,0,0,1,4.36-2.62,10,10,0,0,1,5.77,0,12.1,12.1,0,0,1,6,3.92,17.35,17.35,0,0,1,2.86,5.48c1.64,5.36,5.33,37.42,9.3,81.42l6.64,51.68,1.33,11h-4.17c-1.09-6.34-2.41-14.29-3.8-23.49-2-13-3.64-24.05-5.08-38-1.73-16.78-3.6-42.28-5.09-54.17-.33-2.66-.71-5.24-.71-5.24-.83-5.69-1.71-10.4-2.41-13.8-.3-2.46-1.2-7.44-4.28-10.91a5.48,5.48,0,0,0-3-2,4.3,4.3,0,0,0-4.65,2c-.47.95-.28,2.47.12,5.48.45,3.44.81,4.15.42,5.09S974.59,437,971.56,437.23Z"/><path class="cls-3" d="M1067.35,304.63a7.56,7.56,0,0,1-1,3.57,7.8,7.8,0,0,1-2.9,2.4,10.63,10.63,0,0,1-4.49,1.47,6.21,6.21,0,0,1-4.25-1.68,9.7,9.7,0,0,1-2.4-3.78c-2.12-5-1.54-8.74-3.52-11.81a7.53,7.53,0,0,0-1.7-2c-1.3-1-2.31-.85-4.08-3.46-1.39-2.05-1.89-3.8-3.51-21.77a14.13,14.13,0,0,1,.37-6c1-3.33,4-5.43,6.92-6.82,7.47-3.52,16.38-3.87,23.65.2a12.91,12.91,0,0,1,5,4.52c1.82,3.09,1.81,7,1.74,10.71-.1,4.71.32,7.05-.21,10.21a22.07,22.07,0,0,1-3,8.87c-1.86,2.85-2.5,1.94-3.87,4.39C1068,297.28,1067.53,302.67,1067.35,304.63Z"/><path class="cls-17" d="M1079.49,251.51a16.05,16.05,0,0,0-.68-1.87,16.43,16.43,0,0,0-1.23-2.18c-.24-.38-.46-.69-.62-.91a6.94,6.94,0,0,0-.8-2.28c-1.8-3.16-5.82-2.49-8.83-3.54-6.27-2.19-12-4.21-18.48-1.6a18.84,18.84,0,0,0-8.38,6.53,23.91,23.91,0,0,0-3.17,6.59c-3,10.14,2.63,20.61,3.45,22.09a23.38,23.38,0,0,1-.84-5.95,16.21,16.21,0,0,1,1-6.81c1.41-3.2,4.18-4.45,6.93-5.64a27.44,27.44,0,0,1,13.29-1.88c4.09.33,9.05.92,12.75,3.12,1.79,1.07,2,1.7,3.54-.26,1.84-2.34,2.84-3.49,2.54-4.62A1.8,1.8,0,0,0,1079.49,251.51Z"/><path class="cls-18" d="M1039.91,258.63c-.15-.16.63-1.64,1.68-3,.39-.5,1.28-1.54,5.05-4a25,25,0,0,1,3.37-2c2.53-1.09,5-1.28,5-1s-1.57.53-4.21,2c-.4.22-.19.12-1.68,1-2.36,1.38-2.62,1.49-3.37,2a25.55,25.55,0,0,0-2.53,2C1041,257.57,1040.05,258.79,1039.91,258.63Z"/><path class="cls-3" d="M981.37,405.68a12.93,12.93,0,0,0-9.83,7.2,17.12,17.12,0,0,0-1.38,9.9,5.71,5.71,0,0,0,1.4,2.88A4.19,4.19,0,0,0,975,427a29.1,29.1,0,0,0,3.7-1.34c.91-.39,1.74-.81,2.51-1.23l1.38-3.3v1.65h4.14c0-1,0-1.82,0-2.37a17.17,17.17,0,0,0,0-2.39,15.91,15.91,0,0,0-.27-1.69c-.1-.63-.25-1.52-.41-2.62Z"/><path class="cls-10" d="M1034.59,423.78,1043.22,553a28.85,28.85,0,0,0,12.19,3.09,28.16,28.16,0,0,0,9.73-1.49q2.07-80.5,4.54-80.53t5.42,82.06a28.68,28.68,0,0,0,26,0q1.93-67.71,3.85-135.44Z"/><path class="cls-11" d="M1030.22,314.68l-9.81,61L987,398.16v3.39l-7.18,5.13q2.92,4.36,5.86,8.71l6.63-4.7,4,.73,31.86-8.1,12-60Z"/><path class="cls-6" d="M1041.05,310.26l-10.73,4.35a87.69,87.69,0,0,0,3.87,17.37,82.41,82.41,0,0,0,5.41,12.61,100.51,100.51,0,0,1-2.95,10.13c-2.53,7.21-3.8,8.66-6.33,14.91a63.49,63.49,0,0,0-4.24,17,65.44,65.44,0,0,0,.22,15.64,32.62,32.62,0,0,0,3.39,9.6,28.12,28.12,0,0,0,6,7.63v6.26a63.1,63.1,0,0,0,10.21,4,60.31,60.31,0,0,0,12.59,2.27,95.19,95.19,0,0,0,27-.17,41.3,41.3,0,0,0,13.51-4.21,44.4,44.4,0,0,0,7.73-5,33.36,33.36,0,0,0-.52-4.45,34.33,34.33,0,0,0-.82-3.38l1.72-6.08V398.22c-.17-2.94-.3-6-.38-9.1-.12-4.84-.11-9.48,0-13.9q-6-12.3-12.07-24.6l-2-43.06-17.5-2.49a54.8,54.8,0,0,1-5,11.13,49.17,49.17,0,0,1-7.21,9.47,41.89,41.89,0,0,1-12.61-6.31A47.33,47.33,0,0,1,1041.05,310.26Z"/><path class="cls-3" d="M1074.29,404.72l-4,3.13a16.35,16.35,0,0,0-4.13,6.25,19,19,0,0,0-1.18,6.28,6.29,6.29,0,0,0,4.75,6.33,7,7,0,0,0,4.46,0c4.59-1.47,6.48-7.1,6.73-7.9l2.66-6.26Z"/><path class="cls-11" d="M1126.91,374.46l-39.61,35-3.56,4.95-10.63-9.4,4-4.7,1.1-3.91L1101,373.67l2.65-3.13a36.45,36.45,0,0,1,2.49-4.81c1.51-2.46,4.06-6.6,6.44-7.36C1116.39,357.16,1122.47,363.68,1126.91,374.46Z"/><path class="cls-19" d="M1045.54,560.79a10.84,10.84,0,0,0,6.64,0c.26,1.21.54,2.44.82,3.67.22,1,.42,1.83.58,2.49s.3,1.24.42,1.72a2.64,2.64,0,0,0,2,0,2.81,2.81,0,0,0,1.49-1.62v-2.93l2.66-.2v8.79l-10.63.61h-21.25l1.33-4.7a8.19,8.19,0,0,1,2.4-3.11,7.62,7.62,0,0,1,4.24-1.59l10.63,1.57a10.42,10.42,0,0,1-.87-2.08A11,11,0,0,1,1045.54,560.79Z"/><path class="cls-19" d="M1083.54,562.89a10.84,10.84,0,0,0,6.64,0c.26,1.22.54,2.44.82,3.68.22,1,.42,1.82.58,2.48s.3,1.24.42,1.72a2.54,2.54,0,0,0,2,0,2.83,2.83,0,0,0,1.49-1.61v-2.94l2.66-.19v8.79l-10.63.6h-21.25l1.33-4.7a8.1,8.1,0,0,1,2.4-3.1,7.46,7.46,0,0,1,4.24-1.59l10.63,1.56a10.17,10.17,0,0,1-.87-2.08A11,11,0,0,1,1083.54,562.89Z"/><path class="cls-11" d="M1092.42,307.79q5.52,8.41,11,16.83c4.27,7.76,8.61,16.17,12.89,25.23,4.35,9.22,8.18,18.13,11.55,26.61l-14.49,7.65c-3.57-5.26-7.23-11.07-10.87-17.43-3.17-5.54-6-10.92-8.51-16.06Z"/><path class="cls-20" d="M1039.46,311.6a64.26,64.26,0,0,0,11,10.39,62.18,62.18,0,0,0,13,7.36,64.6,64.6,0,0,0,9-11.57,66.16,66.16,0,0,0,5.56-11.5"/><path class="cls-3" d="M819,296c-.81,1.16-.85,3.44-1,8-.09,2.73,0,4.09,1,5,.55.52,1.24.78,3,1,2.77.34,4.64.66,7,0,1.69-.47,4.56-1.29,6-4,1.59-3,.33-6.18,0-7-.17-.42-2.08-5-7-6C824.81,292.35,820.9,293.29,819,296Z"/><path class="cls-6" d="M107.53,504.89c8.75,2,13.56.37,16.38-1.64,2.15-1.54,4.18-4.06,7.09-3.82,2.09.17,3.69,1.7,4.73,3,0,0-3.64,5.77-5.82,7.4s-8.73,4.92-12.56,5.46-4.36,1.1-7.09,1.1c-1.27,0-.77.11.23,1.87,1.36,2.38,5.82,11,3.59,15-.6,1.09-1.72,2-13.1,3.27a133.63,133.63,0,0,1-23.48.55c-5.09-.29-6.27-.61-7.09-1.64-1.88-2.35,4.36-18.56,4.36-18.56-20.11-7.8-24.45-11.62-24-13.65,0,0,.09-.42,4.23-4.56a33.17,33.17,0,0,0,10.51,4.56c5.09,1.2,7.27.35,12,2.19,4.5,1.74,3.78,3,7.64,4.36,7.18,2.57,14.16-.1,16.38-1.09A24.08,24.08,0,0,0,107.53,504.89Z"/><path class="cls-3" d="M72.29,491a25.36,25.36,0,0,1,1.35-5.84c.92-2.58,2.92-8.19,8.53-11.68a19.42,19.42,0,0,1,11.68-2.7c.44,0,9.74.86,14.82,8.09a24.91,24.91,0,0,1,3.14,6.74,29.69,29.69,0,0,1,1.35,6.73,3.07,3.07,0,0,1,2.25,3.6,3,3,0,0,1-3.15,2.24,22.51,22.51,0,0,1-4.94,6.74,22,22,0,0,1-12.13,5.84c-1.5.2-9.72,1.28-16.16-4.49a18.87,18.87,0,0,1-5.39-8.54A3.43,3.43,0,1,1,72.29,491Z"/><path class="cls-3" d="M74.52,540.72a68.44,68.44,0,0,0,6.26,20.95c-3.32.47-5.53,2.81-5.46,4.91.08,2.66,3.79,4.1,6,4.37,5,.59,8.48-4,8.74-4.37a43,43,0,0,1,.82-13.4,42.4,42.4,0,0,1,1.31-4.68l-7.59-5.39Z"/><path class="cls-3" d="M98.25,547.47l2.18,6a7.7,7.7,0,0,0-1.09,5.37c.9,4.35,6.35,6.79,10.37,6.09.48-.08,4.12-.76,4.91-3.27a3.72,3.72,0,0,0,0-2.1c-.86-3.48-5.45-4.84-6-5a72.59,72.59,0,0,0,2.5-7.62,73.88,73.88,0,0,0,1.87-9.3Z"/><path class="cls-10" d="M70.41,535.46l43.67-2.18c-.21,1.44-.42,2.88-.62,4.33q-5.42,3.4-10.9,7-2.18,1.43-4.31,2.85a10.69,10.69,0,0,1-3.48,1,10.45,10.45,0,0,1-2.58,0c-.68-.38-1.67-.92-2.87-1.55-2.31-1.21-3.46-1.82-4.67-2.33-1-.4-2.19-.79-4.68-1.56-2.85-.89-4.8-1.39-5.45-1.56-1-.26-1.88-.46-2.53-.61Z"/><path class="cls-12" d="M92.5,469.84a5.84,5.84,0,0,0-2.25,1.79,7.17,7.17,0,0,0-1.34,3.15c-.33,1.48-.6,2.69,0,4a5.18,5.18,0,0,0,3.14,2.69c.43.14,2.81.9,4-.45a2.14,2.14,0,0,0-2.24-3.59c0,.13.64.27.9.9a1.7,1.7,0,0,1-.45,1.8,1.79,1.79,0,0,1-2.25,0,2,2,0,0,1-.45-2.25c.27-.62.74-.74,2.7-1.8s2.39-1.42,2.69-1.79a3.21,3.21,0,0,0,.9-2.25,2.86,2.86,0,0,0-.9-1.8,3.59,3.59,0,0,0-2.69-.89A4.39,4.39,0,0,0,92.5,469.84Z"/><path class="cls-21" d="M71.5,535.5H78c10.38,0,10,0,11,0,5.62-.11,9.94-.52,15-1,3.66-.35,6.74-.71,9-1"/><path class="cls-10" d="M402.92,567.78A689.61,689.61,0,0,1,395,484.72c-.57-16.61-.52-32.47,0-47.49-.83-2.19-1.67-4.37-2.5-6.56l3-16.17L457,416l1.5,13.64c.1,20.46-.61,42.6-2.5,66.18-2.09,26-5.33,50-9.16,71.94H434c-2.16-21.27-3.64-44.31-4-68.91-.28-18.82.12-36.7,1-53.55h-9q-.06,24.57-1,50.52c-.94,25.38-2.52,49.79-4.57,73.16Z"/><path class="cls-6" d="M403,321c2.12,1.17,1.35,3.48,3.5,8.5.78,1.82,5.21,12.19,14.5,14.5,6.33,1.57,11.82-1.37,13-2,7.33-3.92,10.25-11.79,10.5-12.5,1.27-3.59.85-5.45,2.5-6.5,3-1.91,8.61,1.5,12,4,7.6,5.61,9.95,14.35,15,31,.65,2.14,1.91,6.53,4,13,1.66,5.14,2.77,8.3,3,9,1.75,5.4-.21,16-17,39l-7-3,9-32-11-20q.39,14.52.5,29.5.08,11.13,0,22A66.72,66.72,0,0,1,395,415a222.13,222.13,0,0,0,2-50l-12.5,21.5q5.5,14,11,28l-7.73,4.83-.27.17c-15.24-16-16.8-30.52-17-36-.14-4,1.57-11.36,5-26,4.26-18.19,6.73-23.18,10.5-27.5C390.87,324.41,398.93,318.76,403,321Z"/><path class="cls-3" d="M388.5,421.5a2.72,2.72,0,0,0,.16.52,5.48,5.48,0,0,0,1.84,2.48c.67,2,1.33,4,2,6l8-5v-4l8,2c.64-.83,1.39-2,1-3-.54-1.36-2.85-1.05-6-2-5-1.5-5.08-4.06-8-4C391.8,414.57,388,418.75,388.5,421.5Z"/><path class="cls-3" d="M441.5,421.5c0,.35.24.85,1.5,1.5a21.87,21.87,0,0,0,5-1,21.34,21.34,0,0,0,3.5-1.5c-1.84,1.39-2,2.59-2,3-.09,2.41,3.39,5.23,9,6L464,419l-7-3-4.25.79c-1.31.55-3.29,1.35-5.75,2.21C443.7,420.15,441.56,420.57,441.5,421.5Z"/><path class="cls-22" d="M401.32,567.41c-4.13,0-9.48.68-13.32,3.59-.95.72-3.42,2.58-3,4a1.83,1.83,0,0,0,1,1c3,1.56,12.6.24,14.29,0L417,573l.56-5.59Z"/><path class="cls-22" d="M433.32,567.41V573a98.52,98.52,0,0,1,19.15,3c1.7.45,8.38,2.28,12.67,0,.53-.28,1.8-1,1.86-2,0-.61-.35-1.58-3-3-4.28-2.29-10.13-3.43-15-4Z"/><path class="cls-23" d="M391,325a91.31,91.31,0,0,1,4,10,93.34,93.34,0,0,1,4,18.08,81,81,0,0,1,0,22.81A76,76,0,0,1,390,402l4.27,9.37a75.8,75.8,0,0,0,7.23-11.55c5.85-11.56,7.25-21.7,8.11-28.32,1-8.12,2.07-16.06,0-26.3A65.16,65.16,0,0,0,399,320.74Z"/><path class="cls-24" d="M397,479c-.39.07-.19,2.91,0,6,.89,14.22.3,11.07,1,19,.6,6.83,1.64,16,2,16,.21,0,0-3,0-12,0-4.77,0-5.1,0-9-.07-7.87-.31-10.77-1-14C398.42,482.31,397.43,478.93,397,479Z"/><path class="cls-25" d="M383,339c-.24-.05-.72,2.15-2,6-1.42,4.3-2.05,5.28-3,8-1.83,5.23-1,5.82-3,15-1.39,6.34-2.59,9.76-2,10s2.21-2.51,3-4c2-3.77,2.25-6.66,3-11,1.28-7.37,1.8-6.6,3-14C382.73,344.52,383.38,339.07,383,339Z"/><path class="cls-10" d="M634.09,300.27l25.83,7.38,16.6,35.05,24.9-17.53a11,11,0,0,0,10.15,11.07l-35.05,32.28a12.64,12.64,0,0,1-8.61,0c-1.54-.61-3.6-1.87-7.07-7.37a62,62,0,0,1-6.46-13.84l-2.31,16.14c-.2,9.05-.1,18.77.47,29.06.64,11.74,1.79,22.69,3.22,32.74l-18.44,4.61-3.23-79.37Z"/><path class="cls-10" d="M604.89,300.27l-25.68,6.92-16.6,36.89-25.37-18.87a10.79,10.79,0,0,1-2.77,8.26,10.57,10.57,0,0,1-6.91,3.23c6.38,7.73,12.25,14,17.06,18.91,7.81,7.92,12,11.25,18,12.45a24.29,24.29,0,0,0,9.38,0l12.75-21.21q.24,9,.46,18-.57,13.64-.92,27.68-.42,17.12-.46,33.66L600,429.86l4.85-64.79Z"/><path class="cls-10" d="M590.28,394.81h57.2q.35,24.09,0,49.17c-.56,37.64-2.36,73.71-5.09,108.09a23.93,23.93,0,0,1-18.45,0,548.25,548.25,0,0,0,1.39-65.94c-.75-18.94-2.42-36.53-4.62-52.58-1.46,7.25-3.19,17-4.61,28.59a402.46,402.46,0,0,0-2.76,41.51c-.35,13.4-.32,30.61.92,50.73a60.55,60.55,0,0,1-11.45,1.84,58.58,58.58,0,0,1-7.62,0c-.61-19.94-1-36.09-1.22-47-.46-21.62-.4-25.27-.93-36-1-20.18-2.07-24.27-2.76-40.65C589.91,423.74,589.62,410.77,590.28,394.81Z"/><path class="cls-6" d="M608.72,297l10.16,8.44L630.51,297l7.73,7.38,1.84,93.16a76.22,76.22,0,0,1-40.58.92q.93-47,1.85-94.08Z"/><polygon class="cls-26" points="612.41 310.88 617.02 318.26 609.65 382.82 618.88 393.95 629.02 382.82 621.64 318.26 626.53 310.88 618.88 305.48 612.41 310.88"/><path class="cls-27" d="M640.55,403.57a94.67,94.67,0,0,1-41.51.93V398a156.89,156.89,0,0,0,41.51-.92Z"/><path class="cls-28" d="M609.19,501.34c-.3,0-.07-9.36,0-12,.16-6.58.3-12.33.92-20.29,1.37-17.75,3.51-25.77,4.61-29.51.2-.7,2.22-7.51,2.77-7.38s-.61,6.09-1.85,13.83c-.17,1.09-2.9,18.29-4.61,35.05C609.8,493.08,609.46,501.36,609.19,501.34Z"/><path class="cls-29" d="M673.75,352.84a26.14,26.14,0,0,1,.92-4.61,26.68,26.68,0,0,1,1.85-4.61"/><path class="cls-29" d="M566.3,351.46a20.94,20.94,0,0,0-.93-2.77,9.56,9.56,0,0,0-.92-1.84,7.24,7.24,0,0,0-1.84-1.85"/><line class="cls-30" x1="604.11" y1="302.58" x2="610.57" y2="309.95"/><line class="cls-30" x1="635.47" y1="303.5" x2="629.02" y2="309.95"/></svg>
