<svg id="Layer_1" data-name="Layer 1" xmlns="http://www.w3.org/2000/svg" viewBox="0 0 93 71"><defs><style>.cls-1{fill:none;stroke:#40607e;stroke-miterlimit:10;stroke-width:5px;}.cls-2{fill:#40607e;}</style></defs><line class="cls-1" x1="60.5" y1="57" x2="26.79" y2="57"/><line class="cls-1" x1="41.58" y1="57" x2="40.7" y2="57"/><path class="cls-1" d="M57.57,57h-1"/><path class="cls-1" d="M13.43,57A9.43,9.43,0,0,1,4,47.57V13.43A9.43,9.43,0,0,1,13.43,4H57.57A9.43,9.43,0,0,1,67,13.43V47.57A9.43,9.43,0,0,1,58,57"/><rect class="cls-2" x="32.5" y="20.5" width="5" height="20"/><rect class="cls-2" x="32.5" y="20.5" width="5" height="20" transform="translate(65.5 -4.5) rotate(90)"/><circle class="cls-1" cx="19.5" cy="59.5" r="8.5"/><rect class="cls-2" x="64.5" y="15.5" width="18" height="5" rx="1.8"/><rect class="cls-2" x="76.52" y="21.08" width="16.71" height="4.91" rx="1.8" transform="translate(49.55 -57.15) rotate(50.86)"/><rect class="cls-2" x="80.62" y="33.24" width="16.71" height="4.91" rx="1.8" transform="translate(124.66 -53.28) rotate(90)"/><rect class="cls-2" x="67.8" y="33.5" width="23.7" height="13" rx="0.56" transform="translate(159.3 80) rotate(180)"/><rect class="cls-2" x="66.5" y="45.52" width="26" height="5.98" rx="1.18" transform="translate(159 97.02) rotate(180)"/><circle class="cls-1" cx="71.5" cy="59.5" r="8.5"/></svg>