<svg id="Layer_1" data-name="Layer 1" xmlns="http://www.w3.org/2000/svg" viewBox="0 0 88 87"><defs><style>.cls-1{fill:none;stroke:#fff;stroke-miterlimit:10;stroke-width:5px;}</style></defs><line class="cls-1" x1="51.5" y1="5" x2="53.51" y2="5"/><path class="cls-1" d="M83,30.5V76.13A5.87,5.87,0,0,1,77.13,82H11.87A5.87,5.87,0,0,1,6,76.13V10.87A5.87,5.87,0,0,1,11.87,5H51.5"/><path class="cls-1" d="M37.47,46.83c-.73,1.75-1,2.66-.93,2.71s.5-.54,1.21-1.75"/><path class="cls-1" d="M36.54,49.54q.16.39,17-6.73L82.21,14.12a2.76,2.76,0,0,0,0-3.91L76.29,4.29a2.76,2.76,0,0,0-3.91,0L43.69,33q-4.56,9.87-6.22,13.86"/><path class="cls-1" d="M37.52,48.86l-.11.06"/></svg>