<svg id="Layer_1" data-name="Layer 1" xmlns="http://www.w3.org/2000/svg" viewBox="0 0 66 61"><defs><style>.cls-1{fill:none;stroke:#fff;stroke-miterlimit:10;stroke-width:4px;}</style></defs><path class="cls-1" d="M59.7,56.9c-16.8,4.1-34.24-1-45.15-13.28C2,29.5,3.61,12.07,3.93,9.09a15.24,15.24,0,0,1,4-4,15.56,15.56,0,0,1,8-2.66,14.62,14.62,0,0,1,6.64,6.64,14.53,14.53,0,0,1,1.33,8l-5.32,8a32.41,32.41,0,0,0,10.63,14.6A31.68,31.68,0,0,0,39.78,45l8-6.64A15.48,15.48,0,0,1,61,43.62,12.2,12.2,0,0,1,59.7,56.9Z"/></svg>